<?xml version="1.0" encoding="UTF-8" standalone="no"?>
<!-- Created with Inkscape (http://www.inkscape.org/) -->

<svg
   width="255.99998"
   height="255.99998"
   viewBox="0 0 67.733328 67.733329"
   version="1.1"
   id="svg5"
   xml:space="preserve"
   inkscape:version="1.2.2 (732a01da63, 2022-12-09)"
   sodipodi:docname="AutoKaaran Logo.svg"
   inkscape:export-filename="fixed White.svg"
   inkscape:export-xdpi="96"
   inkscape:export-ydpi="96"
   xmlns:inkscape="http://www.inkscape.org/namespaces/inkscape"
   xmlns:sodipodi="http://sodipodi.sourceforge.net/DTD/sodipodi-0.dtd"
   xmlns="http://www.w3.org/2000/svg"
   xmlns:svg="http://www.w3.org/2000/svg"><sodipodi:namedview
     id="namedview7"
     pagecolor="#ffffff"
     bordercolor="#000000"
     borderopacity="0.25"
     inkscape:showpageshadow="2"
     inkscape:pageopacity="0.0"
     inkscape:pagecheckerboard="false"
     inkscape:deskcolor="#d1d1d1"
     inkscape:document-units="px"
     showgrid="false"
     showborder="false"
     borderlayer="true"
     inkscape:zoom="2"
     inkscape:cx="115.25"
     inkscape:cy="197.5"
     inkscape:window-width="2100"
     inkscape:window-height="1224"
     inkscape:window-x="2391"
     inkscape:window-y="-9"
     inkscape:window-maximized="1"
     inkscape:current-layer="layer2" /><defs
     id="defs2" /><g
     inkscape:groupmode="layer"
     id="layer2"
     inkscape:label="Logo"
     style="display:inline"
     inkscape:export-filename="layer2.svg"
     inkscape:export-xdpi="96"
     inkscape:export-ydpi="96"
     sodipodi:insensitive="true"><rect
       style="display:inline;fill:#4885ed;fill-opacity:0.988235;stroke:none;stroke-width:0.264583;stroke-opacity:1"
       id="rect3145"
       width="67.73333"
       height="67.73333"
       x="0"
       y="0"
       ry="0"
       inkscape:label="BG"
       sodipodi:insensitive="true" /><rect
       style="display:inline;fill:#00c9c9;fill-opacity:1;stroke:none;stroke-width:0.34818;stroke-opacity:1"
       id="rect2505"
       width="59.373119"
       height="2.6218901"
       x="5.1274414"
       y="55.689899"
       ry="1.310945"
       inkscape:label="Floor"
       sodipodi:insensitive="true" /><g
       id="g3085"
       inkscape:label="Wheel"
       style="display:inline"
       transform="matrix(1.2951717,0,0,1.2951717,-10.138723,-9.603617)"
       sodipodi:insensitive="true"><circle
         style="display:inline;fill:#4d4d4d;fill-opacity:1;stroke:none;stroke-width:0.291512;stroke-opacity:1"
         id="path2663"
         cx="17.190765"
         cy="48.083767"
         r="3.3577585" /><circle
         style="fill:#b3b3b3;fill-opacity:1;stroke:none;stroke-width:0.300142;stroke-opacity:1"
         id="path2873"
         cx="17.386669"
         cy="48.328648"
         r="1.3779804" /></g><g
       id="g3091"
       inkscape:label="Wheel"
       transform="matrix(-0.0135119,1.2951012,-1.2951012,-0.0135119,121.27982,31.107079)"
       style="display:inline"
       sodipodi:insensitive="true"><circle
         style="display:inline;fill:#4d4d4d;fill-opacity:1;stroke:none;stroke-width:0.291512;stroke-opacity:1"
         id="circle3087"
         cx="17.190765"
         cy="48.083767"
         r="3.3577585" /><circle
         style="fill:#b3b3b3;fill-opacity:1;stroke:none;stroke-width:0.300142;stroke-opacity:1"
         id="circle3089"
         cx="17.386669"
         cy="48.328648"
         r="1.3779804" /></g><path
       style="display:inline;fill:#e8974c;fill-opacity:1;stroke:none;stroke-width:0.0264583;stroke-dasharray:none;stroke-opacity:1"
       d="m 33.012014,36.632329 5.951967,-0.444452 2.796545,4.625771 1.614604,0.173326 0.23151,-1.36562 -1.604036,-1.091295 -2.282032,-4.303795 h -3.389973 z"
       id="path16921"
       transform="matrix(1.2951717,0,0,1.2951717,-10.138723,-9.6036171)"
       sodipodi:insensitive="true" /><g
       id="g26981"
       inkscape:label="Auto Body Parts"
       style="display:inline"
       transform="matrix(1.2951717,0,0,1.2951717,-10.138723,-9.603617)"
       sodipodi:insensitive="true"><path
         style="display:inline;fill:#39445a;fill-opacity:1;stroke:none;stroke-width:0.264583;stroke-dasharray:none;stroke-opacity:1"
         d="m 11.601931,35.450222 c -0.07773,0.03158 0.54778,-0.0019 1.385168,-0.09144 0.452515,-0.04841 1.468893,-0.102601 1.808795,-0.157096 0.825152,-0.132292 1.203036,-0.08428 2.322232,-0.351968 0.742323,-0.06805 1.152975,-0.238694 1.71217,-0.252259 0.763451,-0.138507 0.98271,-0.204385 1.203594,-0.27496 0.315093,-0.100677 0.485252,-0.319243 0.417139,-1.051684 -0.08392,-0.902444 -0.09245,-1.269737 -0.151909,-1.933464 -0.09095,-1.015254 -0.135625,-1.792801 -0.248047,-2.467335 -0.01146,-0.06877 -0.0468,-0.565203 -0.06047,-0.633571 -0.07795,-0.389769 -0.09849,-0.857219 -0.14056,-1.170522 -0.142777,-1.063371 -0.235587,-2.220767 -0.242368,-2.662203 -0.0026,-0.168795 0.0537,-0.402096 0.186601,-0.712201 0.02457,-0.05732 0.148235,-0.350367 0.380339,-0.6005 0.645669,-0.474688 1.311178,-0.690815 1.76178,-0.813519 0.88945,-0.353775 1.583224,-0.511914 1.852243,-0.613956 0.839895,-0.318582 1.854046,-0.592274 2.710191,-0.878053 1.38806,-0.46333 1.293138,-0.543274 2.293542,-0.774132 0.799368,-0.324695 1.274619,-0.531118 2.36503,-0.830551 1.177419,-0.430115 1.446013,-0.476801 2.357252,-0.800557 0.174334,-0.07472 0.668052,-0.250341 0.842386,-0.325051 0.183515,-0.07865 0.728326,-0.227073 0.897671,-0.332837 1.217487,-0.415402 1.82954,-0.634124 2.583574,-0.789208 1.225642,-0.50501 1.631745,-0.666574 2.404594,-0.821144 0.27956,-0.146154 0.868083,-0.267179 1.612786,-0.531916 0.209172,-0.0747 0.627351,-0.234279 0.864625,-0.31481 0.477924,-0.16221 1.146721,-0.413414 1.200786,-0.883412 0.005,-0.04381 -0.163524,-0.480309 -0.183244,-0.519749 -0.0441,-0.08819 -0.197963,-0.214579 -0.481841,-0.352382 -0.146044,-0.143271 -0.403984,-0.32296 -0.517919,-0.436899 -0.01931,-0.01933 -0.447154,-0.182652 -0.748353,-0.315712 -0.142414,-0.06291 -0.382758,-0.01169 -0.76005,0.03508 -0.339004,0.1086 -0.439467,0.115532 -1.02314,0.298168 -0.578935,0.180657 -1.158324,0.328047 -1.642872,0.450174 -0.365186,0.146075 -0.569292,0.246642 -0.912057,0.344945 -0.590101,0.169107 -0.904785,0.212316 -1.485018,0.391717 -0.375107,0.125036 -0.866135,0.23537 -1.22777,0.380024 -0.320172,0.128069 -1.443281,0.403108 -1.771494,0.526186 -0.576221,0.208255 -0.759023,0.266219 -1.613934,0.452432 -0.278895,0.06972 -0.710175,0.232136 -0.986593,0.311112 -0.139581,0.03988 -0.637556,0.196462 -0.831038,0.235158 -0.43358,0.08672 -0.982685,0.308063 -1.412971,0.431002 -0.706276,0.201793 -0.887354,0.336681 -1.593416,0.513196 -0.243887,0.06097 -0.741622,0.234409 -0.988133,0.283709 -1.190834,0.368292 -1.616262,0.603349 -2.611867,0.835658 -1.338384,0.488534 -1.766036,0.591882 -2.703132,0.876102 -0.157767,0.118325 -0.711784,0.239285 -0.891995,0.319379 -0.411008,0.172019 -0.259076,0.03588 -0.995916,0.327162 -0.116028,0.07735 -0.447889,0.182604 -0.572614,0.244967 -0.409078,0.183073 -0.661498,0.377144 -0.988134,0.561749 -0.283439,0.09448 -0.599743,0.379771 -0.85276,0.569534 -0.141112,0.105833 -0.418342,0.39628 -0.556079,0.506469 -0.245286,0.199057 -0.660675,0.561999 -0.730358,0.672962 -0.189286,0.188984 -0.243704,0.176747 -0.666146,0.710576 -0.180567,0.270851 -0.645843,0.752624 -0.815475,1.007264 -0.1536,0.230574 -0.40452,0.578747 -0.611362,0.811419 -0.147227,0.165613 -0.32984,0.470846 -0.512143,0.89621 -0.202897,0.473427 -0.199012,0.139643 -0.390227,0.617682 -0.139233,0.348083 -0.02199,0.06581 -0.349855,0.718849 -0.148848,0.296471 -0.325143,0.824404 -0.478584,1.131287 -0.140317,0.280633 -0.06663,0.04442 -0.223242,0.545216 -0.162593,0.351964 -0.31253,0.902147 -0.47291,1.367986 -0.106504,0.516491 -0.1174,0.459914 -0.23151,0.881621 -0.02414,0.0892 -0.06701,0.605165 -0.1013256,0.690961 -0.0579,0.144757 -0.046853,0.332678 -0.074414,0.674429 -0.051457,0.395491 -0.089107,0.801632 -0.081709,1.482443 -0.016537,0.260873 0.00128,0.22441 0.024805,0.855356 0.00657,0.176217 -0.054092,0.02929 0.055288,0.721925 -0.03118,0.155908 0.4420016,0.08858 0.7746146,0.03778 z"
         id="path20036"
         sodipodi:nodetypes="cssccsssscsssccsscccsccccsssccscccccsccsssscccccccscccssssssccssccsccc"
         inkscape:label="Roof" /><path
         style="display:inline;fill:#fcc52b;fill-opacity:1;stroke:none;stroke-width:0.264583;stroke-dasharray:none;stroke-opacity:1"
         d="m 50.893963,35.184362 c 0.20777,-0.146203 0.325797,-0.240509 0.52034,-0.403409 0.396576,-0.316264 0.660586,-0.56401 1.180993,-0.947139 0.740215,0.137407 0.882121,-0.01008 1.561041,0.52027 0.359202,0.495949 0.455421,0.380211 0.426758,1.48502 -0.07845,0.305323 -0.250413,0.685695 -0.426764,0.90622 -0.312704,0.20985 -0.489686,0.326299 -0.98806,0.561267 -0.117393,0.05484 -0.366906,0.176685 -0.795117,0.379978 -0.104307,0.02087 -0.619589,0.130662 -0.72497,0.146162 -0.0557,0.0082 -0.432873,0.03318 -0.491107,0.04088 -0.82488,-0.06688 -0.649066,0.223831 -0.63726,-0.765884 -0.0063,-0.166371 0.0014,-0.617955 0.0116,-0.724973 0.02021,-1.006505 -0.01634,-0.983439 0.362546,-1.198392 z"
         id="path25040"
         sodipodi:nodetypes="ccccccccscccc"
         inkscape:label="Lamp" /><path
         style="display:inline;fill:#58c3c6;fill-opacity:1;stroke:none;stroke-width:0.264583;stroke-dasharray:none;stroke-opacity:1"
         d="m 40.535459,16.812283 c -0.340628,0.08749 -0.166265,0.04093 -0.428205,0.138905 -0.03102,0.01034 -0.189078,0.08881 -0.310341,0.114983 -0.13468,0.03101 -0.161606,0.134734 -0.190049,0.212787 0.05401,0.695629 0.742985,1.72731 0.850854,2.282073 0.46301,1.046867 0.751216,1.798997 0.964508,2.426959 1.596139,3.46436 1.636791,4.846238 2.417285,8.236531 0.322126,1.063074 0.664506,0.609429 1.759631,0.482348 0.518127,-0.111457 0.849498,-0.155616 1.453702,-0.304962 0.217766,-0.0884 0.910423,-0.06188 0.935446,-0.491107 -0.09395,-0.545748 -0.395049,-1.01476 -0.531266,-1.344106 -0.34699,-0.854411 -0.738697,-1.657961 -0.983133,-2.15686 -0.257839,-0.562417 -0.411667,-0.782651 -0.680584,-1.364015 -0.05004,-0.187075 -0.456621,-0.808347 -0.463021,-0.830837 -1.176543,-2.158769 -1.273629,-2.158351 -1.645006,-2.779307 -0.03767,-0.02825 -0.544835,-0.937414 -0.803193,-1.281332 -0.04188,-0.05575 -0.162574,-0.291583 -0.203094,-0.34832 -0.0862,-0.120681 -0.146021,-0.233631 -0.205816,-0.32015 -0.08862,-0.141873 -0.159858,-0.236101 -0.268149,-0.390387 -0.413575,-0.612253 -0.777511,-1.198464 -1.177185,-1.736456 -0.01566,-0.02351 -0.151776,-0.238142 -0.183196,-0.26434 -0.03225,-0.02687 -0.09862,-0.215149 -0.189277,-0.251409 z"
         id="path21206"
         inkscape:label="Wind shield"
         sodipodi:nodetypes="cccccccccccccccsccccccc" /><path
         style="display:inline;fill:#fcc52b;fill-opacity:1;stroke:none;stroke-width:0.264583;stroke-dasharray:none;stroke-opacity:1"
         d="m 47.277735,45.376037 0.05788,-0.529167 c 0.0094,-0.086 0.337766,-0.840215 0.529167,-1.339453 0.410765,-0.720243 0.639549,-1.07125 0.876436,-1.30638 0.740453,-0.700298 1.576766,-1.370501 2.804118,-1.900245 0.111359,-0.02464 2.813769,-0.744942 4.522956,0.05166 1.150879,0.502167 1.576375,1.005083 2.193789,1.486854 0.0824,0.106104 0.193064,0.187836 0.450622,0.415478 0.24645,0.196308 0.215883,0.206407 0.08475,0.322462 -0.207937,0.217893 -0.317574,0.289411 -0.456817,0.450619 -0.03169,0.01902 -0.351308,0.322822 -0.37207,0.326592 -0.458174,-0.682057 -1.815043,-1.53594 -2.885618,-1.856214 -2.275092,-0.211098 -2.856747,-0.11885 -4.191991,0.479561 -0.616149,0.520312 -1.201961,1.323764 -1.711523,2.05879 -0.113819,0.22854 -0.37518,1.085958 -0.686265,2.248954 -1.52129,0.162163 -1.281849,0.02857 -1.215431,-0.909509 z"
         id="path24422"
         sodipodi:nodetypes="cscccccccccccccc"
         inkscape:label="Mud Guard" /><path
         style="display:inline;fill:#24284e;fill-opacity:1;stroke:none;stroke-width:0.264583;stroke-dasharray:none;stroke-opacity:1"
         d="m 34.015494,37.785804 c 0.280263,-0.0074 0.563222,0 0.84336,0 h 1.256771 c 2.026476,0.350515 1.789523,0.07749 0.99839,0.802018 -0.279677,0.296135 -0.702363,0.744521 -1.11001,1.372526 -0.396835,0.561829 -0.740033,1.729261 -0.597525,2.637032 0.208249,1.326541 1.177452,2.036976 1.106043,2.15028 -1.215867,0.07441 -1.718159,0.132284 -2.687176,0.157089 -0.339142,0.01654 -1.382448,0.08465 -1.397328,0.05787 -0.03549,-1.064343 -0.14284,-1.849498 -0.157096,-2.091862 -0.150109,-2.06978 -0.18442,-2.68296 -0.223245,-3.166733 0.104261,-2.608086 -0.825668,-1.843755 1.967816,-1.918224 z"
         id="path25043"
         sodipodi:nodetypes="cscccscccccc"
         inkscape:label="Glove Box" /></g><g
       id="g26974"
       inkscape:label="Cloth"
       style="display:inline"
       transform="matrix(1.2951717,0,0,1.2951717,-10.138723,-9.603617)"
       sodipodi:insensitive="true"><path
         style="display:inline;fill:#e8974c;fill-opacity:1;stroke:none;stroke-width:0.0264583;stroke-dasharray:none;stroke-opacity:1"
         d="m 31.992162,23.783647 c 0,0 -0.0778,0.692337 -0.04677,1.800728 0.02365,0.84481 -0.771742,0.678198 -0.771742,0.678198 0,0 0.112465,4.766829 -0.374176,6.197311 -0.897843,2.639214 -0.86046,3.595368 -0.912057,4.232881 -0.294451,3.63815 0.318895,0.986714 0.318895,0.986714 l 2.721296,-3.114848 1.73057,-1.96443 0.818513,-2.806332 1.590254,1.777344 1.262848,0.327406 2.432153,-0.210476 0.53788,0.304019 1.122532,-0.04677 -0.25725,-1.847501 L 41.486912,29.957575 40.8321,30.331754 40.73856,30.589 38.610426,30.331754 Z"
         id="path13742"
         sodipodi:nodetypes="cscssccccccccccccccc" /><path
         style="display:inline;fill:#b46c54;fill-opacity:1;stroke:none;stroke-width:0.0264583;stroke-dasharray:none;stroke-opacity:1"
         d="m 37.066944,31.571213 1.543482,-1.239459 2.128133,0.257246 0.631423,-1.339101 1.707184,1.526188 -0.04677,1.800728 -1.730568,-0.584653 -0.537879,-0.304019 -2.432153,0.210476 z"
         id="path16393" /></g><g
       id="g25675"
       inkscape:label="Body"
       style="display:inline"
       transform="matrix(1.2951717,0,0,1.2951717,-10.138723,-9.603617)"
       sodipodi:insensitive="true"><path
         style="fill:#fcc52b;fill-opacity:1;stroke:none;stroke-width:0.264583;stroke-dasharray:none;stroke-opacity:1"
         d="m 10.009244,35.453301 c 0.162878,-0.01558 0.220092,-0.02151 0.327405,-0.04677 0.719757,-0.169355 2.750484,-0.01613 3.384379,-0.142912 1.587577,-0.05304 1.463702,-0.114532 4.64576,-0.618894 l 1.342694,-0.231511 c 0.148952,-0.02568 0.538543,-0.179443 0.649379,-0.124023 0.06896,0.03448 0.18864,0.776126 0.209057,0.864597 0.06788,0.294153 0.280877,2.329402 0.280877,2.633268 0.08184,0.171352 4.984769,-0.847078 5.571804,3.094655 0.004,1.686342 -0.0414,2.956659 -0.788565,4.607748 1.483426,-0.136174 1.879358,-0.131379 2.667559,-0.212624 0.665225,-0.06857 4.311896,-0.271219 4.906947,-0.330729 0.313737,-0.03137 2.885852,-0.260938 3.200937,-0.272609 1.012703,-0.03751 2.789123,-0.514026 3.602431,-1.07487 1.881185,-1.297232 1.696354,-1.54621 1.775881,-2.661883 0.234865,-3.29488 0.0565,-5.354741 -0.04215,-6.310764 -0.378093,-3.663838 -0.473817,-3.974704 -0.665512,-4.933052 -0.51668,-3.071522 -1.671733,-9.487098 -2.0623,-10.123237 l -1.042628,-1.747575 c -2.456321,-1.056021 -0.798026,-0.542147 1.201016,-1.330833 0.37386,0.957907 2.844603,5.957864 4.008186,11.244618 1.042222,3.518158 0.345901,3.428246 2.794639,2.923256 3.257896,-0.748573 1.542638,-1.347423 3.145432,3.320824 0.02554,0.985624 0.06744,4.836356 0.04712,5.556546 -0.02241,0.794103 -0.65415,3.101335 -1.543826,4.569627 -0.106351,2.293621 -0.698362,2.270822 -1.274543,2.338609 -2.447168,0.142216 -2.586267,0.112587 -5.215102,0.397555 -0.673472,0.09023 -2.385482,0.18958 -2.970032,0.245558 -3.190495,0.310595 -4.681421,0.449729 -8.021426,0.760048 -0.400799,0.02422 -2.369882,0.226041 -3.437754,0.327407 -0.5532,0.05251 -2.336573,0.0619 -3.952247,0.245554 -0.403253,-0.0043 -0.307727,-0.278129 -0.374178,-0.678196 -0.03331,-0.200532 -0.05769,-0.66183 -0.152009,-0.8419 -0.174367,-0.33288 -0.533274,-1.025088 -0.736662,-1.3447 -1.086144,-1.1279 -1.746244,-1.361813 -2.51401,-1.672101 -0.380058,-0.101846 -0.66891,-0.345302 -2.093054,-0.04677 -0.90919,0.09341 -2.277558,0.894116 -3.180505,1.590254 -1.325166,1.557639 -1.262153,1.578711 -1.707177,0.327411 -0.30135,-1.029079 -0.483344,-2.072469 -0.736661,-2.923262 -0.09287,-0.696532 -0.177248,-0.887252 -0.315704,-1.520093 -0.39882,-2.183147 -0.489099,-2.694292 -0.619723,-3.34421 -0.09979,-0.717109 -0.315832,-1.793372 -0.3624848,-1.964433 -0.02958,-0.108463 -0.1141064,-0.55938 0.046773,-0.549573 z"
         id="path25525"
         sodipodi:nodetypes="ccccssscccsssssscccccccscccccscssccccccccscc"
         inkscape:label="Body" /><path
         style="fill:#fcc52b;fill-opacity:1;stroke:none;stroke-width:0.264583;stroke-dasharray:none;stroke-opacity:1"
         d="m 39.466913,17.285188 c 1.233393,-0.555761 1.237489,-0.351156 1.058165,-0.882661 -0.0039,0 -0.04298,-0.179419 -0.175393,-0.344945 -1.332783,0.555936 -1.427948,0.190851 -0.882772,1.227606 z"
         id="path25670"
         sodipodi:nodetypes="cccc"
         inkscape:label="path25670" /></g><g
       id="g17351"
       style="display:inline"
       inkscape:label="Lines"
       inkscape:export-filename="g17351.svg"
       inkscape:export-xdpi="96"
       inkscape:export-ydpi="96"
       transform="matrix(1.2951717,0,0,1.2951717,-10.138723,-9.603617)"
       sodipodi:insensitive="true"><path
         style="color:#000000;fill:#000000;fill-opacity:1;-inkscape-stroke:none"
         d="m 41.960937,12.646484 -0.107421,0.240235 c 0,0 0.866029,0.389198 1.421875,0.857422 0.277923,0.234112 0.457227,0.485309 0.455078,0.667968 -0.0011,0.09133 -0.03539,0.177203 -0.144532,0.277344 -0.109141,0.100142 -0.295253,0.206846 -0.578125,0.302735 -8.502345,2.882136 -20.643532,6.951568 -21.599609,7.281249 -0.46471,0.160246 -1.062783,0.304517 -1.482422,0.8125 -0.419638,0.507984 -0.631903,1.354541 -0.40039,2.859375 0.454942,2.957123 0.78125,8.28125 0.78125,8.28125 l 0.265625,-0.01563 c 0,0 -0.325874,-5.321301 -0.785157,-8.30664 -0.225599,-1.466397 -0.01402,-2.219661 0.341797,-2.650391 0.35582,-0.430729 0.883069,-0.564204 1.365235,-0.730469 0.937673,-0.323335 13.094502,-4.398839 21.597656,-7.281249 0.304692,-0.103286 0.524141,-0.220078 0.673828,-0.357422 0.149687,-0.137344 0.228511,-0.302341 0.230469,-0.46875 0.0039,-0.332818 -0.249228,-0.61903 -0.550782,-0.873047 -0.603106,-0.508035 -1.484375,-0.896485 -1.484375,-0.896485 z"
         id="path3795" /><path
         style="color:#000000;fill:#000000;fill-opacity:1;-inkscape-stroke:none"
         d="m 41.876953,12.634766 c -0.01769,0.0016 -0.04328,0.0055 -0.08203,0.01172 -0.0775,0.01248 -0.207837,0.03835 -0.431641,0.08984 -0.447608,0.102988 -1.2658,0.311363 -2.761719,0.736328 -2.991836,0.849931 -8.691091,2.563999 -19.52539,6.025391 -3.905887,1.24787 -6.820185,5.462676 -8.050781,8.287109 -0.940343,2.158252 -1.2418646,4.0575 -1.3105472,5.435547 -0.034341,0.689024 -0.00904,1.247193 0.021484,1.642578 0.015262,0.197693 0.03081,0.35606 0.042969,0.466797 0.00608,0.05537 0.010936,0.0988 0.013672,0.128906 0.00274,0.03011 -0.00225,0.06401 0.00586,0.02344 l 0.2578132,0.05273 c 0.0116,-0.05802 0.0032,-0.0647 0,-0.09961 -0.0032,-0.03491 -0.0076,-0.07959 -0.01367,-0.134766 C 10.030851,35.190423 10.014929,35.037139 10,34.84375 9.970141,34.456972 9.946782,33.910268 9.980469,33.234375 c 0.067373,-1.351786 0.361214,-3.218658 1.287109,-5.34375 1.207641,-2.771747 4.112111,-6.934072 7.888672,-8.140625 10.83281,-3.460916 16.530777,-5.174937 19.517578,-6.023437 1.493401,-0.424251 2.309813,-0.631142 2.75,-0.732422 0.220094,-0.05064 0.34547,-0.07489 0.414063,-0.08594 0.03328,-0.0054 0.05282,-0.0089 0.0625,-0.0098 l 0.01367,-0.263672 c 0,0 -0.01942,-0.0016 -0.03711,0 z"
         id="path3797" /><path
         style="color:#000000;fill:#000000;fill-opacity:1;-inkscape-stroke:none"
         d="M 20.408203,34.089844 C 15.563755,35.241642 9.9238281,35.376953 9.9238281,35.376953 l 0.00781,0.263672 c 0,0 5.6542619,-0.131577 10.5390619,-1.292969 z"
         id="path3799" /><path
         style="fill:none;fill-opacity:1;stroke:#000000;stroke-width:0.264583;stroke-opacity:1"
         d="m 35.98255,17.505671 c 0,0 2.589628,-1.098231 3.532023,3.965877"
         id="path3801" /><path
         style="fill:none;fill-opacity:1;stroke:#000000;stroke-width:0.264583;stroke-opacity:1"
         d="m 47.24895,46.267724 c 0,0 -0.131982,-2.617385 1.812382,-4.386662 2.435753,-2.216417 4.421294,-1.939364 4.421294,-1.939364 0,0 2.317202,-0.178354 3.890274,1.154385 1.662314,1.408347 1.489157,1.38526 1.489157,1.38526 l -0.888875,0.796526 c 0,0 -1.189357,-1.463582 -3.11684,-1.847017 -0.442025,-0.08793 -2.551189,-0.404034 -3.971081,0.56565 -1.419894,0.969682 -2.054804,2.766597 -2.054804,2.766597 0,0 -0.415578,1.400731 -0.35786,1.45845 0.05772,0.05772 -1.223647,0.04617 -1.223647,0.04617 z"
         id="path3805"
         sodipodi:nodetypes="cscsccsscscc" /><path
         style="fill:none;fill-opacity:1;stroke:#000000;stroke-width:0.264583;stroke-opacity:1"
         d="m 50.576274,35.458897 -0.04081,2.334542 c 0,0 1.172439,0.233787 2.188836,-0.306401 0.670395,-0.356298 1.446323,-0.725189 1.525207,-0.89352 1.247845,-2.662802 -1.624382,-2.783492 -1.624382,-2.783492 z"
         id="path4693"
         sodipodi:nodetypes="ccsscc" /><path
         style="fill:none;fill-opacity:1;stroke:#000000;stroke-width:0.264583;stroke-opacity:1"
         d="m 30.73693,19.272411 c 0,0 0.98659,20.051119 1.771572,25.738131"
         id="path4749"
         sodipodi:nodetypes="cc" /><path
         style="fill:none;fill-opacity:0.988235;stroke:#000000;stroke-width:0.264583;stroke-opacity:1"
         d="m 9.9277052,35.508861 c 0,0 0.4333318,3.089704 1.0273108,6.072027 0.490984,2.46519 1.091733,4.857011 1.648239,5.369778"
         id="path4813"
         sodipodi:nodetypes="csc" /><path
         style="fill:none;fill-opacity:0.988235;stroke:#000000;stroke-width:0.264583;stroke-opacity:1"
         d="m 12.518566,46.858764 c 0,0 2.198882,-3.094557 5.208517,-3.094557 3.009635,0 4.888654,3.133965 4.663282,4.564441 -0.0606,0.384621 24.858585,-2.060924 24.858585,-2.060924"
         id="path6541"
         sodipodi:nodetypes="cssc" /><path
         style="fill:none;fill-opacity:0.988235;stroke:#000000;stroke-width:0.264583;stroke-opacity:1"
         d="m 10.955016,41.580887 c 0,0 4.748085,-0.0846 15.312648,-1.403932"
         id="path6599" /><path
         style="fill:none;fill-opacity:0.988235;stroke:#000000;stroke-width:0.264583;stroke-opacity:1"
         d="m 52.197216,34.154398 c 0,0 0.08644,2.277107 0.998257,3.08655"
         id="path6601" /><path
         style="fill:none;fill-opacity:0.988235;stroke:#000000;stroke-width:0.264583;stroke-opacity:1"
         d="m 53.283299,33.916276 c 0,0 0.02529,1.377465 0.966208,2.677242"
         id="path6603" /><path
         style="fill:none;fill-opacity:0.988235;stroke:#000000;stroke-width:0.264583;stroke-opacity:1"
         d="m 40.656935,15.927599 c 0,0 -0.362714,0.372501 -0.047,0.980539 0.315711,0.608038 7.78791,10.652067 8.466106,17.241242 0.678196,6.589178 -0.65798,8.437609 -0.65798,8.437609"
         id="path6605"
         sodipodi:nodetypes="cssc" /><path
         style="fill:none;fill-opacity:0.988235;stroke:#000000;stroke-width:0.264583;stroke-opacity:1"
         d="m 41.714263,35.083025 7.361778,-0.933646"
         id="path6607" /><path
         style="fill:none;fill-opacity:1;stroke:#000000;stroke-width:0.264583;stroke-opacity:1"
         d="m 20.439475,34.218163 0.375486,3.477323 c 0,0 4.799763,-0.441216 5.452703,2.481469 0.685669,3.069188 -0.636693,5.305774 -0.636693,5.305774 L 36.56903,44.73176 c 0,0 5.154469,-0.612666 5.191496,-3.918112 0.09263,-8.269518 -0.11034,-7.659731 -2.245952,-19.3421"
         id="path3683"
         sodipodi:nodetypes="ccsccsc" /><rect
         style="fill:#ff0000;fill-opacity:1;stroke:none;stroke-width:0.2973;stroke-opacity:1"
         id="rect3807"
         width="2.4126632"
         height="0.83664936"
         x="8.4254618"
         y="43.809227"
         ry="0.41832468"
         transform="rotate(-4.7383677)" /><path
         style="display:inline;fill:none;fill-opacity:1;stroke:#000000;stroke-width:0.264583;stroke-opacity:1"
         d="m 36.56903,44.73176 c 0,0 -3.380301,-2.787808 1.060222,-6.640618"
         id="path4751"
         sodipodi:nodetypes="cc" /><rect
         style="fill:#2e2e2e;fill-opacity:0.988235;stroke:none;stroke-width:0.318679;stroke-opacity:1"
         id="rect4753"
         width="7.4130836"
         height="1.8459815"
         x="28.747961"
         y="38.988884"
         ry="0.70788062"
         transform="rotate(-4.2705229)" /><rect
         style="fill:#ff0000;fill-opacity:1;stroke:none;stroke-width:0.2973;stroke-opacity:1"
         id="rect6597"
         width="2.4126632"
         height="0.83664936"
         x="38.549355"
         y="45.410023"
         ry="0.41832468"
         transform="rotate(-7.2186521)" /><path
         style="display:inline;fill:none;fill-opacity:1;stroke:#000000;stroke-width:0.264583;stroke-dasharray:none;stroke-opacity:1"
         d="m 40.609935,16.908138 c 0,0 -0.965303,0.178606 -0.965303,0.366484 0,0.187878 0.360211,1.14603 0.472815,1.378502 0.512631,1.058334 2.017448,5.126303 2.017448,5.126303 0,0 1.067787,3.391105 1.860624,7.077604 0.04453,0.207036 4.049565,-0.76077 4.049565,-0.76077"
         id="path17358"
         sodipodi:nodetypes="csscsc" /><rect
         style="fill:#fcd86a;fill-opacity:1;stroke:none;stroke-width:0.264583;stroke-dasharray:none;stroke-opacity:1"
         id="rect17361"
         width="1.9995102"
         height="2.6777067"
         x="45.472176"
         y="38.09845"
         transform="rotate(-3.2565553)" /><rect
         style="fill:#fcd823;fill-opacity:1;stroke:none;stroke-width:0.264583;stroke-dasharray:none;stroke-opacity:1"
         id="rect18262"
         width="4.2094951"
         height="2.782944"
         x="9.4242792"
         y="37.908661"
         transform="rotate(-5.1906744)" /></g><g
       id="g26970"
       inkscape:label="Rajini"
       style="display:inline"
       transform="matrix(1.2951717,0,0,1.2951717,-10.138723,-9.603617)"
       sodipodi:insensitive="true"><path
         style="display:inline;fill:#b46c54;fill-opacity:1;stroke:none;stroke-width:0.0264583;stroke-dasharray:none;stroke-opacity:1"
         d="m 35.804493,21.689476 c 0,0 0.3194,1.060898 0.170572,1.403688 -0.148828,0.342789 0.191086,0.982587 0.191086,0.982587 l -0.298573,0.133624 c 0,0 -0.303712,0.150596 -0.148828,0.669726 0.212149,0.711068 0.06614,0.628386 0.06614,0.628386 l -1.240234,0.05788 c -0.07638,0.491513 0.09095,0.661459 0.09095,0.661459 l -1.85474,-1.883778 -0.997799,-2.357824 1.298111,-1.380794 1.909961,0.181901 z"
         id="path9425"
         sodipodi:nodetypes="csccscccccccc" /><path
         style="display:inline;fill:#3b0f05;fill-opacity:1;stroke:none;stroke-width:0.0529167;stroke-dasharray:none;stroke-opacity:1"
         d="m 33.243318,24.239675 c 0,0 -0.467722,0.292327 -0.900366,-0.09354 -0.432641,-0.38587 -1.233741,-1.917659 -1.233741,-1.917659 0,0 -0.389361,-1.19269 0.603432,-1.941045 0.992793,-0.748354 1.963317,-0.479415 1.963317,-0.479415 0,0 0.397563,0.07016 0.970523,0.409257 0.572958,0.339098 0.578804,0.298173 0.578804,0.298173 l 0.771743,0.111084 c 0,0 0.228331,1.078421 -0.479416,1.198537 -0.442036,0.07502 -0.625577,-0.409257 -0.625577,-0.409257 l -0.45603,-0.40341 c 0,0 -1.052372,-0.342911 -0.479414,0.483355 0.57296,0.826266 0.350792,0.966582 0.23386,1.212136 -0.11693,0.245554 0.187089,0.728066 0.187089,0.728066 0,0 0.128625,0.137219 -0.04677,0.125526 -0.175395,-0.01169 -0.464105,-0.479415 -0.464105,-0.479415 L 33.51226,22.859901 c 0,0 -0.526188,-0.15201 -0.467723,0.280632 0.05847,0.432643 0.07016,0.853593 0.07016,0.853593 z"
         id="path6609"
         sodipodi:nodetypes="cscscsccsccsscsccscc" /><path
         style="display:inline;fill:#3b0f05;fill-opacity:1;stroke:none;stroke-width:0.0264583;stroke-dasharray:none;stroke-opacity:1"
         d="m 34.015058,23.304232 1.835809,-0.15201 c 0,0 0.152008,0.57296 -0.292328,0.561266 -0.444336,-0.01169 -0.514493,-0.140316 -0.514493,-0.140316 l -0.783434,-0.05846 z"
         id="path10311" /><path
         style="display:inline;fill:#67210f;fill-opacity:1;stroke:none;stroke-width:0.0264583;stroke-dasharray:none;stroke-opacity:1"
         d="m 34.146641,23.283769 1.835809,-0.15201 c 0,0 0.152008,0.57296 -0.292328,0.561266 -0.444336,-0.01169 -0.514493,-0.140316 -0.514493,-0.140316 l -0.783434,-0.05846 z"
         id="path10865" /><path
         style="display:inline;fill:#643d2a;fill-opacity:1;stroke:none;stroke-width:0.0264583;stroke-dasharray:none;stroke-opacity:1"
         d="m 35.730838,24.565101 c 0,0 -0.562674,-0.136582 -0.514816,-0.12352 0.04785,0.01308 0.3162,-0.05932 0.482257,-0.03966 0.166052,0.0197 0.03256,0.163178 0.03256,0.163178 z"
         id="path10923" /><path
         style="display:inline;fill:#67210f;fill-opacity:1;stroke:none;stroke-width:0.0264583;stroke-dasharray:none;stroke-opacity:1"
         d="m 35.716854,24.46418 c 0,0 -0.577965,-0.03483 -0.528551,-0.03044 0.04941,0.0044 0.300708,-0.114353 0.467621,-0.124405 0.166915,-0.01003 0.06093,0.154838 0.06093,0.154838 z"
         id="path10921" /><path
         style="display:inline;fill:#547ab4;fill-opacity:1;stroke:none;stroke-width:0.0264583;stroke-dasharray:none;stroke-opacity:1"
         d="m 35.47669,29.793869 -0.140229,3.064073 0.994138,1.368322 -3.318585,2.406065 -0.732848,-0.781288 0.0034,-0.559244 2.375635,-2.691596 z"
         id="path16811" /></g></g></svg>
